<svg xmlns="http://www.w3.org/2000/svg" viewBox="0 0 256 256" width="512" height="512">
  <defs>
    <filter id="bgShadow" x="-20%" y="-20%" width="140%" height="140%">
      <feDropShadow dx="0" dy="6" stdDeviation="8" flood-color="#000000" flood-opacity="0.15" />
      <feDropShadow dx="0" dy="2" stdDeviation="2" flood-color="#000000" flood-opacity="0.08" />
    </filter>

    <filter id="redShadow" x="-30%" y="-30%" width="160%" height="160%">
      <feDropShadow dx="0" dy="8" stdDeviation="10" flood-color="#cc0000" flood-opacity="0.3" />
      <feDropShadow dx="0" dy="2" stdDeviation="3" flood-color="#000000" flood-opacity="0.12" />
    </filter>

    <filter id="playShadow" x="-20%" y="-20%" width="140%" height="140%">
      <feDropShadow dx="0" dy="2" stdDeviation="3" flood-color="#000000" flood-opacity="0.25" />
    </filter>

    <linearGradient id="squircleBg" x1="0%" y1="0%" x2="0%" y2="100%">
      <stop offset="0%" stop-color="#ffffff" />
      <stop offset="100%" stop-color="#f0f0f4" />
    </linearGradient>

    <linearGradient id="redBase" x1="0%" y1="0%" x2="0%" y2="100%">
      <stop offset="0%" stop-color="#ff4a4a" />
      <stop offset="100%" stop-color="#c20000" />
    </linearGradient>
  </defs>

  <path d="M 128 26 C 179 26 196 26 211 41 C 226 56 226 73 226 128 C 226 183 226 200 211 215 C 196 230 179 230 128 230 C 77 230 60 230 45 215 C 30 200 30 183 30 128 C 30 73 30 56 45 41 C 60 26 77 26 128 26 Z" fill="url(#squircleBg)" filter="url(#bgShadow)" />

  <circle cx="128" cy="128" r="85" fill="url(#redBase)" filter="url(#redShadow)" />

  <g filter="url(#playShadow)">
    <circle cx="128" cy="128" r="42" fill="none" stroke="#ffffff" stroke-width="7" />
    <path d="M 115 103 L 155 128 L 115 153 Z" fill="#ffffff" stroke="#ffffff" stroke-width="2" stroke-linejoin="round" />
  </g>
</svg>